<?xml version="1.0" encoding="UTF-8"?>
<svg version="1.1" viewBox="0 0 1600 1600" width="1280" height="1280" xmlns="http://www.w3.org/2000/svg">
<path transform="translate(1240 92.6)" d="m0 0c2.23-0.00203 4.47-0.00495 6.7-0.0087 4.65-0.00439 9.3 0.00189 14 0.016 5.9 0.0171 11.8 0.00724 17.7-0.0107 4.6-0.0109 9.21-0.00734 13.8 3.83e-4 2.17 0.00197 4.35-3.55e-4 6.52-0.00744 27.3-0.0694 50.5 2.67 71.4 22 15.9 17 21.1 36.5 21.4 59.3 0.012 0.798 0.024 1.6 0.0364 2.42 0.0486 3.32 0.0961 6.65 0.114 9.97 0.0155 2.46 0.0557 4.91 0.0999 7.36-0.00191 0.744-0.00382 1.49-0.00578 2.25 0.12 5.13 1.3 8.11 4.58 12 4.86 2.81 9.45 3.93 15 3 3.82-1.55 7.32-3.56 10.9-5.62 0.929-0.522 1.86-1.04 2.82-1.58 4.58-2.59 9.1-5.27 13.6-8.02 3.66-2.21 7.26-4.03 11.3-5.52 1.01-0.387 2.02-0.773 3.07-1.17 18.6-5.94 38.9-4.59 56.6 3.61 23.2 12.6 33.9 33.1 46.3 55.3 3.37 5.99 6.82 11.9 10.3 17.9 1.17 1.99 2.33 3.99 3.5 5.98 0.589 1.01 1.18 2.01 1.78 3.05 0.609 1.04 1.22 2.08 1.84 3.15 0.649 1.11 1.3 2.22 1.97 3.36 4.39 7.52 8.74 15.1 13 22.6 0.414 0.729 0.829 1.46 1.26 2.21 9.86 17.6 14 36.3 8.68 56-3.66 12.4-9.27 23.2-17.9 32.8-0.518 0.611-1.04 1.22-1.57 1.85-6.96 7.66-16.6 12.6-25.5 17.6-1.07 0.612-2.15 1.22-3.25 1.86-2.15 1.22-4.3 2.43-6.47 3.62-7.48 4.17-7.48 4.17-12.2 11-0.622 2.75-0.622 2.75-0.5 5.5-0.0155 1.35-0.0155 1.35-0.0312 2.72 0.817 4.28 2.65 7.36 6.16 10 1.96 1.23 3.96 2.35 5.99 3.45 1.53 0.869 3.06 1.74 4.58 2.61 1.18 0.666 1.18 0.666 2.39 1.35 23.9 13.5 39.7 27.7 48.4 54.5 5.61 20.9 0.116 39.4-10 57.8-0.519 0.948-1.04 1.9-1.57 2.87-6.06 11-12.2 21.9-18.7 32.7-3.51 5.91-6.89 11.9-10.3 17.9-29.2 51.8-29.2 51.8-58.5 61.5-0.897 0.321-1.79 0.642-2.72 0.973-18.9 5.82-39.6 2.39-56.7-6.6-3.21-1.75-6.39-3.55-9.56-5.38-0.814-0.469-1.63-0.938-2.47-1.42-3.78-2.19-7.54-4.4-11.3-6.65-4.62-2.75-7.87-3.6-13.2-2.93-4.31 1.34-7.17 2.66-9.58 6.57-1.66 4.03-1.86 7.55-1.86 11.8-0.0198 1.2-0.0198 1.2-0.04 2.43-0.0407 2.55-0.0625 5.11-0.0811 7.66-0.254 26.7-3.58 48.8-22.9 69.1-15.1 14.3-33.4 19.2-53.6 20.5-1.87 0.131-1.87 0.131-3.79 0.265-3.06 0.214-6.12 0.422-9.19 0.625-5.97e-4 0.856-0.00119 1.71-0.00181 2.59-0.0359 50.7-0.0926 101-0.176 152-0.01 6.09-0.0199 12.2-0.0296 18.3-0.00194 1.21-0.00388 2.43-0.00588 3.68-0.031 19.6-0.048 39.3-0.0598 58.9-0.0124 20.2-0.0399 40.3-0.0814 60.5-0.0251 12.4-0.0385 24.9-0.0368 37.3 2.98e-5 8.53-0.0146 17.1-0.0407 25.6-0.0146 4.92-0.0229 9.83-0.0136 14.8 0.00833 4.51-0.00198 9.02-0.0265 13.5-0.00565 1.62-0.00472 3.25 0.00382 4.87 0.0709 14.7-2.61 27.7-9.53 40.9-0.418 0.806-0.835 1.61-1.27 2.44-11.4 20.4-30.1 34.6-52.4 41.1-11.8 3.17-23.6 3.78-35.8 3.74-1.63 8.74e-4 -3.26 0.00263-4.88 0.00518-4.44 0.00444-8.88-0.00349-13.3-0.0136-4.8-0.00868-9.6-0.00571-14.4-0.0042-8.31 0.00105-16.6-0.0052-24.9-0.0165-12-0.0163-24-0.0215-36-0.024-19.5-0.00437-39-0.0177-58.5-0.0366-18.9-0.0184-37.8-0.0325-56.8-0.041-1.17-5.25e-4 -2.33-0.00105-3.54-0.00159-5.86-0.00261-11.7-0.00514-17.6-0.00762-48.6-0.0207-97.1-0.0559-146-0.101 0.158 1.31 0.158 1.31 0.319 2.65 1.01 8.38 2.02 16.8 3.03 25.2 0.518 4.31 1.04 8.61 1.55 12.9 2.94 24.4 5.81 48.8 8.51 73.3 1.78 19.4 1.78 19.4 8.34 37.5 0.352 0.665 0.704 1.33 1.07 2.01 7 12.8 18.4 21.7 32.2 26.5 14.2 3.76 28.5 3.44 43.1 3.44 3.09 0.00358 6.19 0.0309 9.28 0.0603 0.931-0.00818 1.86-0.0164 2.82-0.0248 9.34 0.105 16.2 3.35 23.1 9.66 2.54 2.76 4.07 5.5 5.72 8.87 0.354 0.561 0.709 1.12 1.07 1.7 2.58 6.41 1.91 15.8 0.0508 22.4-3.87 8.25-9.54 13.7-17.9 17.2-5.5 1.81-10.7 1.87-16.4 1.86-1.4 0.00308-1.4 0.00308-2.83 0.00622-3.15 0.00568-6.3 0.00421-9.45 0.00279-2.27 0.00258-4.55 0.0056-6.82 9e-3 -6.26 0.00808-12.5 0.00986-18.8 0.0106-6.06 0.00166-12.1 0.00798-18.2 0.0141-16.2 0.0161-32.5 0.022-48.7 0.0267-7.68 0.00234-15.4 0.00594-23 0.0097-26.3 0.0128-52.6 0.0236-78.8 0.027-1.65 2.22e-4 -3.3 4.43e-4 -4.95 6.65e-4 -1.65 2.21e-4 -3.31 4.41e-4 -4.96 6.61e-4 -3.32 4.43e-4 -6.64 8.9e-4 -9.95 0.00134-0.823 1.09e-4 -1.65 2.19e-4 -2.49 3.31e-4 -26.7 0.00363-53.4 0.0196-80 0.0429-28.2 0.0246-56.4 0.0383-84.6 0.0395-3.1 1.71e-4 -6.19 3.87e-4 -9.29 6.34e-4 -0.762 5.58e-5 -1.52 1.12e-4 -2.31 1.69e-4 -12.3 0.00115-24.5 0.0122-36.8 0.0267-12.3 0.0144-24.7 0.0176-37 0.00956-6.68-0.00407-13.4-0.00294-20 0.0111-6.11 0.0127-12.2 0.0116-18.3-5.91e-4 -2.21-0.00196-4.43 0.00116-6.64 0.00984-3.01 0.0111-6.01 0.00363-9.02-0.00839-0.861 0.0076-1.72 0.0152-2.61 0.023-8.58-0.0741-16.8-2.31-23.1-8.39-5.92-7.28-9.68-14.9-9.35-24.4 1.06-8.09 4.46-15.9 10.3-21.6 5.81-4.21 11-7.08 18.3-7.17 0.832-0.0135 1.66-0.027 2.52-0.0409 0.895-0.0104 1.79-0.0209 2.71-0.0316 1.92-0.033 3.85-0.0662 5.77-0.0996 3.01-0.047 6.02-0.0914 9.03-0.131 21.8-0.302 41.1-0.897 58.7-15.5l2.18-1.73c4.58-4.04 7.38-8.65 10.1-14 0.326-0.631 0.651-1.26 0.987-1.91 6.17-12.8 6.95-27.2 8.51-41.1 0.257-2.23 0.514-4.46 0.773-6.69 0.677-5.86 1.34-11.7 2.01-17.6 0.669-5.88 1.35-11.8 2.02-17.6 0.884-7.68 1.77-15.4 2.64-23.1 0.229-2.01 0.459-4.02 0.689-6.03 0.627-5.48 1.25-11 1.86-16.4 0.269-2.38 0.537-4.76 0.806-7.14 0.124-1.12 0.248-2.24 0.375-3.39 0.118-1.04 0.235-2.07 0.356-3.14 0.103-0.917 0.205-1.83 0.311-2.78 0.344-2.34 0.344-2.34 1.34-5.34-0.897 0.00114-1.79 0.00228-2.72 0.00345-53.2 0.0672-106 0.119-160 0.15-6.39 0.00375-12.8 0.00763-19.2 0.0116-1.91 0.00118-1.91 0.00118-3.86 0.00238-20.6 0.013-41.2 0.0367-61.8 0.0643-21.1 0.0281-42.3 0.0447-63.4 0.0508-13 0.00411-26.1 0.0171-39.1 0.0415-8.95 0.0159-17.9 0.0206-26.8 0.0168-5.16-0.00192-10.3 9.71e-4 -15.5 0.0171-4.73 0.0147-9.46 0.0153-14.2 0.00508-1.7-0.00126-3.41 0.00246-5.11 0.012-27.3 0.143-50.9-7.76-71-26.8-19.5-19.4-25.2-44.1-25.3-70.8-6.35e-4 -3.21 0.0124-6.42 0.0259-9.63 0.0128-4.35-0.00365-8.7-0.0162-13-0.018-7.61-0.0176-15.2-0.00476-22.8 0.019-11.3 0.00922-22.6-0.00604-33.9-0.0263-20.2-0.0241-40.4-0.00961-60.6 0.0126-17.7 0.0159-35.4 0.00989-53.1-3.82e-4 -1.17-7.64e-4 -2.35-0.00116-3.56-0.00156-4.77-0.00315-9.53-0.0048-14.3-0.0153-44.7-0.00144-89.4 0.0255-134 0.0237-39.7 0.0216-79.4-0.0023-119-0.0268-44.6-0.0374-89.2-0.0219-134 0.0016-4.76 0.00317-9.52 0.00472-14.3 3.95e-4 -1.17 7.91e-4 -2.34 0.0012-3.55 0.00568-17.7-9.52e-4 -35.3-0.0136-53-0.0143-20.1-0.0107-40.2 0.0164-60.3 0.0147-11.2 0.0157-22.5-0.00323-33.7-0.0112-7.52-0.00417-15 0.0175-22.6 0.0118-4.28 0.0161-8.56-0.00203-12.8-0.127-32.3 4.17-60.4 27.7-84.7 20-19.8 44.1-25.1 71.6-25 1.34-0.00187 2.68-0.00417 4.03-0.00687 3.66-0.00607 7.32-0.00599 11-0.00481 3.96 2.05e-4 7.92-0.00533 11.9-0.0101 7.74-0.00828 15.5-0.0111 23.2-0.0116 6.29-4.76e-4 12.6-0.00254 18.9-0.0057 17.9-0.0088 35.7-0.0134 53.6-0.0127 0.962 4e-5 1.92 7.99e-5 2.91 1.21e-4 1.44 6.13e-5 1.44 6.13e-5 2.92 1.24e-4 15.6 4.07e-4 31.2-0.00917 46.8-0.0233 16-0.0144 32.1-0.0213 48.1-0.0204 9 3.32e-4 18-0.0024 27-0.0132 7.66-0.00911 15.3-0.0113 23-0.00449 3.91 0.00326 7.81 0.00334 11.7-0.00535 3.58-0.00789 7.16-0.00641 10.7 0.00228 1.9 0.00225 3.79-0.00527 5.69-0.0132 11.7 0.0471 21.9 0.747 30.8 9.05 7.4 7.87 9.81 15 9.48 25.8-0.548 4.74-1.97 8.31-4.39 12.4l-1.69 3.19c-5.86 7.13-13.4 10.1-22.3 11.8-4.59 0.396-9.16 0.404-13.8 0.379-1.36 0.0033-2.72 0.00792-4.08 0.0137-3.71 0.0121-7.43 0.00588-11.1-0.0035-4.01-0.00683-8.03 0.00375-12 0.0123-6.95 0.0125-13.9 0.0145-20.8 0.00964-10.1-0.00682-20.1 0.00573-30.2 0.0235-16.3 0.0286-32.6 0.0462-49 0.0546-0.976 5.07e-4 -1.95 0.00101-2.96 0.00154-7.92 0.00403-15.8 0.00753-23.8 0.011-6.93 0.00306-13.9 0.00633-20.8 0.00993-0.976 5.03e-4 -1.95 0.00101-2.96 0.00152-16.3 0.00874-32.5 0.0292-48.8 0.058-10 0.0172-20.1 0.0238-30.1 0.0167-6.87-0.00418-13.7 0.00216-20.6 0.0168-3.96 0.00806-7.92 0.0112-11.9 0.00118-3.63-0.00907-7.26-0.00436-10.9 0.0112-1.93 0.00469-3.86-0.00539-5.8-0.016-8.48 0.0559-13.7 1.13-20.5 6.4h-2c-1.41 2.79-2.77 5.59-4.06 8.44l-1.04 2.25c-1.6 4.11-2.03 8.02-2.03 12.4-0.00337 1.52-0.00337 1.52-0.00681 3.06 0.00394 1.66 0.00394 1.66 0.00796 3.35-0.00115 1.18-0.00231 2.37-0.0035 3.58-0.0022 3.29 1.07e-4 6.59 0.00428 9.88 0.00343 3.57 0.00106 7.14-5.83e-4 10.7-0.00208 6.27-4.26e-4 12.5 0.00363 18.8 0.00609 9.44 0.00637 18.9 0.00553 28.3-0.00124 15.8 0.00206 31.6 0.0081 47.5 0.00817 21.4 0.0101 42.8 0.011 64.2 0.00526 51.5 0.0192 103 0.0321 154l0.0625 348h1176v-258c-16.8-1.48-16.8-1.48-34-3-21.8-6.8-39.1-16.1-50.6-36.3-6.23-12.1-9.47-23.5-9.59-37.1-0.0281-1.81-0.0567-3.63-0.0859-5.44-0.0413-2.83-0.0782-5.66-0.104-8.49-0.0277-2.75-0.0736-5.5-0.122-8.25-0.00325-0.839-0.00651-1.68-0.00986-2.54-0.111-5.35-0.947-9.12-3.47-13.9-4.24-4.03-7.82-5.43-13.7-5.35-4.49 0.685-8.17 3.13-12 5.41-0.882 0.502-1.76 1-2.67 1.52-3.72 2.13-7.42 4.31-11.1 6.53-13.5 8.1-26.7 12.3-42.4 12.2-0.966-0.00491-1.93-0.00983-2.93-0.0149-7.1-0.116-13.5-0.839-20.2-3.3-1.48-0.528-1.48-0.528-3-1.07-19.9-7.68-32.2-21.1-42.5-39.3-1.65-2.91-3.33-5.8-5.01-8.69-3.2-5.52-6.39-11-9.56-16.6-3.18-5.55-6.38-11.1-9.57-16.6-0.618-1.07-1.24-2.15-1.87-3.26-2.98-5.18-6-10.3-9.09-15.5-13.4-22.3-24.2-44.6-17.9-71.2 3.2-12 9.14-23.6 17.5-32.9 0.568-0.66 1.14-1.32 1.72-2 7.36-8 17-13.2 26.4-18.4 1.07-0.604 2.15-1.21 3.25-1.83 2.15-1.2 4.3-2.38 6.47-3.54 5.48-3.07 9.21-5.44 11.7-11.4 1.63-5.87 0.404-9.69-2.48-14.9v-2c-0.656-0.232-1.31-0.464-1.99-0.703-3.94-1.7-7.52-3.85-11.2-6.05-0.757-0.45-1.51-0.901-2.29-1.36-1.5-0.893-3-1.79-4.5-2.68-1.67-0.995-3.36-1.97-5.04-2.95-19-11.1-32.9-26.8-38.7-48.3-3.13-12.5-3.15-24-0.2-36.5 0.189-0.822 0.377-1.64 0.571-2.49 0.46-2 0.928-4 1.4-6-1.95 0.00415-1.95 0.00415-3.94 0.00838-30.9 0.065-61.7 0.114-92.6 0.145-3.8 0.00375-7.61 0.00763-11.4 0.0116-0.757 7.87e-4 -1.51 0.00157-2.29 0.00238-12.2 0.013-24.5 0.0367-36.7 0.0643-12.6 0.0281-25.1 0.0447-37.7 0.0508-7.75 0.00411-15.5 0.0171-23.3 0.0415-5.95 0.0178-11.9 0.0196-17.9 0.0156-2.44 8.24e-4 -4.87 0.00678-7.31 0.0183-3.33 0.015-6.67 0.0113-10 0.00315-0.959 0.00874-1.92 0.0175-2.91 0.0265-9.74-0.0643-18.6-2.16-25.8-9.18-6.53-7.04-9.58-14.2-9.4-24 0.876-9.29 4.9-16.2 11.6-22.5 9.29-6.19 17.3-6.9 28.3-6.91 1.19-0.00494 2.37-0.00988 3.59-0.015 3.28-0.0127 6.56-0.021 9.84-0.0274 3.54-0.00802 7.08-0.0217 10.6-0.0347 6.13-0.0217 12.3-0.0399 18.4-0.0556 8.87-0.0227 17.7-0.0509 26.6-0.0803 14.4-0.0476 28.8-0.0909 43.2-0.131 14-0.0394 28-0.0808 41.9-0.125 0.862-0.00272 1.72-0.00545 2.61-0.00826 4.32-0.0137 8.65-0.0274 13-0.0411 35.9-0.114 71.7-0.221 108-0.323 0.362-0.643 0.724-1.29 1.1-1.95 1.67-2.97 3.35-5.94 5.02-8.91 0.569-1.01 1.14-2.02 1.72-3.07 13.8-24.4 26.7-44.5 55.2-53.1 28.8-7.22 51.3 3.16 75.8 17.5 8.58 5.07 8.58 5.07 18.2 5.45 4.69-1.71 7.26-3.84 10-8 0.855-2.73 1.13-5.2 1.14-8.06 0.00703-0.789 0.0141-1.58 0.0213-2.39 0.00416-0.848 0.00833-1.7 0.0126-2.57 0.0232-1.83 0.0474-3.66 0.0723-5.48 0.0348-2.86 0.0643-5.71 0.0779-8.57 0.141-24.7 5.79-43.9 22.9-62.6 20.3-19.3 46-20.8 72.5-20.7zm-32 68.2c-0.943 3.26-0.943 6.46-0.953 9.82-0.0226 1.53-0.0458 3.06-0.0693 4.59-0.00914 0.797-0.0183 1.59-0.0277 2.41-0.371 28.6-3.22 53.2-24.6 74.4-14.7 14-35.6 21.4-55.8 21.2-20-1.36-35.8-9.88-52.7-19.9-0.715-0.416-1.43-0.832-2.17-1.26-1.35-0.786-2.69-1.58-4.03-2.39-3.94-2.29-6.76-3.46-11.3-2.69-4.61 2.43-7.03 4.97-9.62 9.44-0.493 0.836-0.493 0.836-0.996 1.69-1.14 1.95-2.26 3.91-3.38 5.87-0.884 1.54-1.77 3.07-2.65 4.61-2.02 3.51-4.02 7.03-6.02 10.5-3.52 6.19-7.08 12.4-10.6 18.5-0.62 1.07-1.24 2.15-1.88 3.26-2.99 5.17-5.98 10.3-8.97 15.5-1.38 2.39-2.77 4.79-4.15 7.18-0.979 1.69-1.96 3.39-2.94 5.08-0.593 1.03-1.19 2.05-1.8 3.11-0.784 1.35-0.784 1.35-1.58 2.74-2.73 4.85-3.87 7.69-3.37 13.4 2.06 4.4 4.47 6.26 8.62 8.69 0.563 0.335 1.13 0.669 1.71 1.01 3.26 1.93 6.56 3.81 9.85 5.69 23.5 13.5 38.9 28.3 46.6 55.2 4.61 20.5 0.682 43.3-10.5 61-10.2 14.5-23.4 22.7-38.4 31.4-0.899 0.526-1.8 1.05-2.72 1.59-1.79 1.04-3.58 2.08-5.38 3.1-6.13 3.46-6.13 3.46-9.72 9.3-0.709 5.73 0.848 9.56 3.62 14.4 0.596 1.09 0.596 1.09 1.2 2.19 4.66 8.41 9.55 16.7 14.4 25 3.17 5.39 6.3 10.8 9.42 16.2 2.49 4.33 4.99 8.65 7.49 13 1.23 2.13 2.46 4.27 3.68 6.41 1.75 3.06 3.51 6.11 5.28 9.15 0.52 0.915 1.04 1.83 1.58 2.77 3.42 5.87 6.18 9.88 12.9 12 5.34 0.364 9.07-2.26 13.5-4.97 23.2-14.2 46.1-25.6 73.9-19.2 21.2 5.3 38.2 16.8 50.2 35.2 8.96 15.3 10.6 31 10.9 48.3 0.0161 0.758 0.0321 1.52 0.0487 2.3 0.0797 3.85 0.136 7.7 0.151 11.6 0.0212 1.44 0.043 2.88 0.0654 4.32 0.00822 1.28 0.0164 2.57 0.0249 3.89 0.604 4 1.65 5.6 4.51 8.4 2.91 1.75 5.07 2.25 8.46 2.28 0.887 0.0114 1.77 0.0228 2.69 0.0346 1.45 0.00335 1.45 0.00335 2.93 0.00677 1.02 0.00993 2.05 0.0199 3.1 0.0301 3.39 0.0292 6.77 0.0428 10.2 0.0539 2.35 0.0115 4.71 0.023 7.06 0.0345 4.94 0.021 9.87 0.0327 14.8 0.0397 6.32 0.011 12.6 0.059 19 0.116 4.86 0.0373 9.73 0.0477 14.6 0.0507 2.33 0.00605 4.66 0.0221 6.99 0.0484 3.26 0.0342 6.52 0.0304 9.79 0.0174 0.96 0.0184 1.92 0.0369 2.91 0.0558 5.81-0.0723 9-1.12 13.3-5.09 3.11-4.13 2.43-9.35 2.47-14.3 0.0281-1.74 0.0568-3.48 0.0859-5.22 0.0409-2.72 0.0778-5.44 0.104-8.16 0.151-14.2 0.331-28.6 7.35-41.3 0.351-0.665 0.703-1.33 1.06-2.02 10.4-19.4 26-32.5 46.9-39.6 22.9-6.5 44.3-1.75 64.8 9.41 3.06 1.7 6.06 3.47 9.05 5.3 0.75 0.455 1.5 0.91 2.27 1.38 1.43 0.873 2.85 1.76 4.26 2.66 4.71 2.89 8.34 3.94 13.9 4.19 7.8-2.18 11.2-10.5 14.9-17.1 1.02-1.83 2.04-3.66 3.06-5.5 4.55-8.13 9.17-16.2 13.9-24.2 1.16-1.99 2.33-3.98 3.49-5.96 0.589-1.01 1.18-2.01 1.78-3.05 3.32-5.68 6.62-11.4 9.92-17 0.619-1.06 1.24-2.13 1.88-3.22 6.95-10.7 6.95-10.7 10.2-22.7-3.13-9.03-10.8-12.3-18.8-16.6-7.71-4.26-15-8.61-22-13.9-2.24-1.71-2.24-1.71-4.57-2.78-2.34-1.19-2.71-2.53-3.76-4.89-0.864-1.03-1.76-2.03-2.69-3-12.7-14.6-18.1-34.8-17.2-53.9 1.79-17.9 7.85-34.5 19.9-48.1 0.823-0.929 0.823-0.929 1.66-1.88 5.48-5.82 11.6-9.66 18.5-13.6 1.66-0.978 1.66-0.978 3.35-1.98 4.61-2.72 9.24-5.4 13.9-8.06 1.15-0.676 2.3-1.35 3.46-2.03 1.42-0.806 1.42-0.806 2.87-1.63 2.93-2.35 4.03-4.26 5.26-7.81-0.113-5.77-2.2-9.96-4.94-14.9-0.605-1.11-0.605-1.11-1.22-2.25-3.52-6.43-7.23-12.7-11-19-3.46-5.83-6.85-11.7-10.2-17.6-0.639-1.11-1.28-2.21-1.94-3.35-3.05-5.3-6.09-10.6-9.11-15.9-0.799-1.41-0.799-1.41-1.61-2.84-0.982-1.73-1.96-3.47-2.94-5.2-5.87-11.8-5.87-11.8-16-18.9-6.77 0.218-11.7 3.24-17.4 6.56-1.96 1.1-3.92 2.19-5.88 3.28-0.962 0.538-1.92 1.08-2.92 1.63-21.7 12-42.5 18.6-67.2 11.5-14.2-4.78-25.1-11.4-35.5-22-1.02-1.02-1.02-1.02-2.06-2.06-17.2-18.4-18.2-41.3-18.4-65.1-0.0216-2.66-0.061-5.33-0.102-7.99-1.74e-4 -1.22-1.74e-4 -1.22-3.51e-4 -2.46-0.104-5.91-1.3-9.07-5.41-13.5-4.38-2.74-8.16-2.46-13.2-2.41-1.54-0.0105-1.54-0.0105-3.11-0.0212-3.39-0.0176-6.77-0.00595-10.2 0.00757-2.36-0.00269-4.71-0.00658-7.07-0.0116-4.94-0.0059-9.87 0.00267-14.8 0.0214-6.32 0.0228-12.6 0.00968-19-0.0143-4.86-0.0145-9.73-0.00985-14.6 5.11e-4 -2.33 0.00267-4.66-6e-4 -6.99-0.00992-3.26-0.0102-6.52 0.00535-9.78 0.0276-0.962-0.0081-1.92-0.0162-2.91-0.0245-6.39 0.0808-10.7 0.979-14.8 6.32zm-1146 941c-5.2 45.9-5.2 45.9 4.56 87.6 6.72 6.55 13.8 9.53 23.1 9.5 0.793 0.0019 1.59 0.0038 2.4 0.00576 2.68 0.00519 5.37 0.0032 8.05 0.00131 1.94 0.00225 3.88 0.00495 5.82 0.00804 5.38 0.00726 10.8 0.00823 16.1 0.00822 5.83 0.00107 11.7 0.00785 17.5 0.0139 10.2 0.0098 20.5 0.0158 30.7 0.0193 11 0.00375 22 0.00962 33 0.0181 0.693 5.31e-4 1.39 0.00106 2.1 0.00161 2.82 0.00217 5.65 0.00434 8.47 0.00653 34.2 0.0265 68.5 0.0421 103 0.0552 11.1 0.00425 22.2 0.00882 33.3 0.0136 58.2 0.0249 116 0.047 174 0.0592 4.26 8.97e-4 8.52 0.00181 12.8 0.00273 0.845 1.82e-4 1.69 3.63e-4 2.56 5.5e-4 8.56 0.00184 17.1 0.00371 25.7 0.0056 1.72 3.78e-4 3.43 7.54e-4 5.15 0.00113 55.1 0.012 110 0.0417 165 0.0834 39.6 0.0299 79.2 0.0576 119 0.0673 0.814 2.01e-4 1.63 4.01e-4 2.47 6.08e-4 17.9 0.00435 35.7 0.0073 53.6 0.00893 7.19 6.76e-4 14.4 0.00153 21.6 0.00244 1.18 1.41e-4 1.18 1.41e-4 2.38 2.85e-4 25.4 0.00311 50.7 0.0216 76.1 0.0481 25.5 0.0265 51.1 0.0373 76.6 0.0263 3.53-0.00152 7.06-0.00287 10.6-0.00411 0.692-2.5e-4 1.38-4.99e-4 2.1-7.57e-4 11-0.0035 21.9 0.00982 32.9 0.0301 10.8 0.0196 21.5 0.021 32.3 0.00427 5.76-0.00844 11.5-0.00888 17.3 0.0126 5.24 0.0194 10.5 0.0158 15.7-0.00615 1.89-0.00387 3.77 6.74e-4 5.66 0.0146 11.4 0.0784 19.6-0.422 28.9-7.74 0.913-1.03 0.913-1.03 1.84-2.08 0.629-0.674 1.26-1.35 1.91-2.04 14.3-24.8 3.59-57.2 3.59-85.8h-1178zm507 159c-0.539 4.01-1.08 8.01-1.61 12-0.182 1.36-0.364 2.71-0.546 4.07-1.76 13.1-3.34 26.2-4.85 39.3-0.444 3.86-0.892 7.71-1.34 11.6-1.39 12-2.76 23.9-4.07 35.9-3.04 27.7-5.9 53.5-17.6 79.1v2h255c0.33-0.66 0.66-1.32 1-2-0.801-1.91-1.69-3.78-2.62-5.62-5.21-11.1-8.34-22.1-10.3-34.1-0.257-1.56-0.257-1.56-0.518-3.15-2.06-12.8-3.51-25.7-4.96-38.7-0.305-2.66-0.611-5.32-0.917-7.99-0.715-6.22-1.42-12.4-2.13-18.7-1.04-9.15-2.09-18.3-3.14-27.5-0.156-1.36-0.311-2.72-0.467-4.07-0.076-0.663-0.152-1.33-0.23-2.01-0.52-4.54-1.04-9.07-1.55-13.6-0.137-1.2-0.274-2.4-0.415-3.64-0.255-2.23-0.509-4.47-0.762-6.7-0.221-8.69-0.221-8.69-2.97-16.3-2.52-0.0977-5.01-0.13-7.52-0.12-0.797-8.54e-4 -1.59-0.00171-2.42-0.00259-2.69-0.00166-5.38 0.00387-8.08 0.00932-1.92 2.82e-4 -3.84 1.24e-4 -5.76-4.43e-4 -5.23-2.88e-4 -10.5 0.00561-15.7 0.0126-5.46 0.00623-10.9 0.00684-16.4 0.00803-10.4 0.00311-20.7 0.0113-31.1 0.0213-11.8 0.0112-23.6 0.0167-35.3 0.0217-24.2 0.0105-48.5 0.0281-72.7 0.0503z" fill="#000002"/>
<path transform="translate(1350 337)" d="m0 0c5.52 4.42 10.2 9 14.7 14.4 0.776 0.865 1.55 1.73 2.35 2.62 21.1 24.1 32.3 57.5 30.4 89.5-2.21 29.9-12.8 55.7-31.8 78.9-0.426 0.526-0.851 1.05-1.29 1.59-3.56 4.35-7.38 7.85-11.7 11.4-0.938 0.776-1.88 1.55-2.84 2.35-18.3 14.8-39.1 23.5-62.2 27.6-1.06 0.193-2.12 0.387-3.21 0.586-15.8 1.73-32.3 1.31-47.8-2.59-0.644-0.161-1.29-0.322-1.95-0.488-31-8.01-60.3-28.2-77-55.8-17.9-31.4-25.9-66.7-16.4-102 7.11-24.6 18.9-44.5 37.3-62.4 0.438-0.495 0.877-0.99 1.33-1.5 16.9-18.4 43.7-28.3 67.7-32.5 1.05-0.183 2.09-0.366 3.17-0.555 36.7-4.27 70.5 6.53 99.1 29.2zm-134 55.8c-13.6 16.1-16.9 34.2-15.8 54.6 1.84 15.8 10.7 29.4 22 40 0.791 0.749 1.58 1.5 2.4 2.27 8.57 7.44 20.2 13.5 31.6 14.7 1.17 0.143 2.34 0.286 3.54 0.434 20.2 2.08 37.5-4.07 53.5-16.4 12.5-10.5 19.4-25.6 22.7-41.3 1.75-20.7-3.22-38.3-16.1-54.8-11-12.2-27.5-21.9-44-23.1-24.3-1.23-43 5.39-59.7 23.5z" fill="#000002"/>
<path transform="translate(207 722)" d="m0 0c0.912-0.00175 1.82-0.00351 2.76-0.00531 3.07-0.00466 6.13-0.00219 9.2 2.34e-4 2.22-0.00187 4.43-0.00417 6.65-0.00687 6.1-0.00613 12.2-0.00598 18.3-0.00481 5.9 1.83e-4 11.8-0.00431 17.7-0.00861 13.6-0.00967 27.1-0.0125 40.7-0.0131 10.5-4.59e-4 20.9-0.00252 31.4-0.0057 3.01-8.98e-4 6.03-0.00179 9.04-0.00267 0.749-2.21e-4 1.5-4.42e-4 2.27-6.7e-4 21.1-0.00615 42.2-0.0101 63.2-0.00966 0.795 1.56e-5 1.59 3.12e-5 2.41 4.72e-5 4.03 8.31e-5 8.06 1.82e-4 12.1 2.85e-4 1.2 2.99e-5 1.2 2.99e-5 2.42 6.04e-5 1.62 4.04e-5 3.24 8.22e-5 4.85 1.25e-4 25.2 6.13e-4 50.3-0.00689 75.5-0.0206 28.3-0.0154 56.6-0.024 84.8-0.023 3.02 7.46e-5 6.03 1.23e-4 9.05 1.54e-4 1.11 1.75e-5 1.11 1.75e-5 2.25 3.53e-5 11.9 3.08e-5 23.9-0.00635 35.8-0.015 12-0.00848 24-0.00946 36-0.00289 6.5 0.00327 13 0.00331 19.5-0.00535 5.96-0.00785 11.9-0.00645 17.9 0.00228 2.15 0.00154 4.31-2.95e-4 6.46-0.00586 30-0.0723 30-0.0723 40.3 9.99 6.44 7.14 8.55 14.2 8.43 23.6-0.72 8.64-4.71 15.4-11 21.3-9.19 7.68-20.3 7.47-31.8 7.44-0.91 0.00175-1.82 0.00351-2.76 0.00531-3.04 0.00464-6.07 0.0022-9.11-2.34e-4 -2.2 0.00187-4.41 0.00417-6.61 0.00687-6.05 0.00611-12.1 0.00599-18.1 0.00481-5.85-1.83e-4 -11.7 0.00431-17.6 0.00861-13.4 0.00966-26.9 0.0125-40.3 0.0131-10.4 4.6e-4 -20.8 0.00252-31.2 0.0057-2.99 8.98e-4 -5.98 0.00179-8.97 0.00267-0.744 2.21e-4 -1.49 4.42e-4 -2.25 6.7e-4 -20.9 0.00615-41.8 0.0101-62.7 0.00966-0.788-1.56e-5 -1.58-3.12e-5 -2.39-4.72e-5 -3.99-8.31e-5 -7.99-1.82e-4 -12-2.85e-4 -0.793-1.99e-5 -1.59-3.99e-5 -2.4-6.04e-5 -1.6-4.04e-5 -3.21-8.22e-5 -4.81-1.25e-4 -25-6.13e-4 -49.9 0.0069-74.9 0.0206-28.1 0.0154-56.1 0.024-84.2 0.023-2.99-7.46e-5 -5.98-1.23e-4 -8.97-1.54e-4 -1.1-1.75e-5 -1.1-1.75e-5 -2.23-3.53e-5 -11.8-3.08e-5 -23.7 0.00635-35.5 0.015-11.9 0.00848-23.8 0.00947-35.7 0.00289-6.45-0.00327-12.9-0.0033-19.3 0.00535-5.9 0.00784-11.8 0.00646-17.7-0.00228-2.14-0.00154-4.27 2.99e-4 -6.41 0.00586-2.9 0.00706-5.81 0.00176-8.71-0.00656-0.828 0.00497-1.66 0.00994-2.51 0.0151-11.1-0.0671-19.2-2.37-27.7-9.51-7.27-8.64-9.11-16.6-8.31-27.8 2.03-9.01 7.72-15.6 15-21 6.95-4.01 14.3-4.15 22.1-4.13z" fill="#000002"/>
<path transform="translate(201 881)" d="m0 0c1-0.00353 1-0.00353 2.03-0.00713 2.25-0.00668 4.5-0.00623 6.75-0.00582 1.63-0.0033 3.25-0.00702 4.88-0.0111 4.48-0.01 8.95-0.0137 13.4-0.0164 4.82-0.0039 9.65-0.0135 14.5-0.0222 11.7-0.0198 23.3-0.0298 35-0.0387 5.49-0.00438 11-0.00975 16.5-0.015 18.2-0.017 36.5-0.0315 54.7-0.0387 4.73-0.00191 9.47-0.00383 14.2-0.00579 1.18-4.84e-4 2.35-9.67e-4 3.56-0.00147 19.1-0.0083 38.1-0.0336 57.2-0.0661 19.6-0.0331 39.1-0.0511 58.7-0.0543 11-0.00217 22-0.0109 33-0.0365 9.36-0.0217 18.7-0.0298 28.1-0.02 4.77 0.00455 9.55 0.00264 14.3-0.0168 4.37-0.0176 8.74-0.0166 13.1-0.0011 1.58 0.00238 3.16-0.00196 4.74-0.0138 11.8-0.0834 21.2 1.22 30.1 9.58 6.36 6.98 9.33 14.5 9.13 23.9-1.03 8.14-4.91 16.8-11.4 22-6.92 4.2-12.6 6.12-20.7 6.13-0.671 0.00235-1.34 0.0047-2.03 0.00713-2.26 0.00668-4.51 0.00623-6.77 0.00582-1.63 0.0033-3.26 0.00702-4.89 0.0111-4.49 0.01-8.98 0.0137-13.5 0.0164-4.84 0.0039-9.68 0.0135-14.5 0.0222-11.7 0.0198-23.4 0.0298-35.1 0.0387-5.5 0.00438-11 0.00975-16.5 0.015-18.3 0.017-36.6 0.0315-54.9 0.0387-4.75 0.00191-9.49 0.00383-14.2 0.00579-1.77 7.26e-4 -1.77 7.26e-4 -3.57 0.00147-19.1 0.0083-38.2 0.0336-57.3 0.0661-19.6 0.0331-39.2 0.0511-58.9 0.0543-11 0.00217-22 0.0109-33.1 0.0365-9.38 0.0217-18.8 0.0298-28.1 0.02-4.79-0.00455-9.57-0.00262-14.4 0.0168-4.38 0.0176-8.77 0.0167-13.2 0.0011-1.58-0.00238-3.17 0.00197-4.75 0.0138-11.7 0.0823-20.2-1.37-29-9.51-6.66-7.43-8.17-14.9-8.07-24.6 0.658-8.04 4.18-15.1 10.3-20.4 7.02-4.91 12.1-7.12 20.6-7.13z" fill="#000002"/>
<path transform="translate(749 881)" d="m0 0c0.977-0.00446 1.95-0.00892 2.96-0.0135 1.61 2.77e-4 1.61 2.77e-4 3.25 5.59e-4 1.71-0.00552 1.71-0.00552 3.45-0.0111 3.83-0.011 7.67-0.0149 11.5-0.0187 2.74-0.00573 5.49-0.0129 8.23-0.0199 8.24-0.0198 16.5-0.0298 24.7-0.0387 3.88-0.00439 7.77-0.00975 11.6-0.015 12.9-0.017 25.8-0.0315 38.7-0.0387 3.35-0.00191 6.7-0.00383 10-0.00579 0.832-4.84e-4 1.66-9.67e-4 2.52-0.00147 13.5-0.0083 27-0.0336 40.4-0.0661 13.8-0.0331 27.7-0.0511 41.5-0.0543 7.77-0.00216 15.5-0.0109 23.3-0.0365 6.62-0.0217 13.2-0.0297 19.9-0.02 3.38 0.00454 6.75 5e-4 10.1-0.0168 3.67-0.0177 7.33-0.0106 11 0.00253 1.06-0.011 2.12-0.0219 3.2-0.0332 10.2 0.0881 18.2 3.13 25.6 10.2 5.22 6.15 8.42 14.2 7.98 22.3-1.12 8.01-3.41 14.1-9 20-0.538 0.566-1.08 1.13-1.63 1.71-7.49 7.1-16.1 7.73-26.1 7.67-1.15 0.00539-2.3 0.0108-3.48 0.0163-3.83 0.0143-7.67 0.00718-11.5 5.29e-5 -2.76 0.00406-5.51 0.0126-8.27 0.0208-6.7 0.0172-13.4 0.018-20.1 0.0128-5.44-0.00405-10.9-0.00259-16.3 0.00275-0.776 7.48e-4 -1.55 0.0015-2.35 0.00227-1.58 0.00153-3.15 0.00307-4.73 0.00461-14.8 0.0137-29.5 0.00829-44.3-0.00319-13.5-0.00993-27 0.00301-40.5 0.0269-13.9 0.0244-27.8 0.034-41.6 0.0273-7.79-0.00349-15.6-0.00127-23.4 0.0163-6.63 0.0147-13.3 0.0153-19.9-0.00207-3.38-0.0085-6.76-0.0085-10.1 0.00465-3.67 0.0132-7.34 0.00168-11-0.016-1.59 0.0144-1.59 0.0144-3.22 0.0291-9.58-0.0948-16.7-3.03-23.7-9.53-6.66-7.43-8.17-14.9-8.07-24.6 0.658-8.04 4.18-15.1 10.3-20.4 6.17-4.32 11.2-7.12 18.8-7.13z" fill="#000002"/>
<path transform="translate(655 398)" d="m0 0c4.44 3.05 8.25 6.67 12.1 10.4 0.559 0.546 1.12 1.09 1.7 1.65 6.04 5.91 12 11.8 17.5 18.3 3 3.35 6.23 6.47 9.43 9.63 3.35 3.33 6.5 6.76 9.56 10.4 2.34 2.62 4.84 5.09 7.34 7.56 3.07 3.03 6.08 6.08 8.88 9.38 3.71 4.36 7.79 8.32 11.9 12.3 3.58 3.55 6.97 7.19 10.2 11 1.62 1.84 3.33 3.5 5.11 5.19 7.08 6.98 11.7 14.7 11.8 24.8-0.349 16.2-11.5 26.1-22.4 36.8-3.59 3.53-6.98 7.13-10.2 11-3.3 3.7-6.89 7.12-10.4 10.6-2.46 2.38-2.46 2.38-4.36 5.42h-2c-0.395 0.885-0.395 0.885-0.798 1.79-1.25 2.31-2.55 3.78-4.43 5.6-0.634 0.623-1.27 1.25-1.92 1.89-0.672 0.651-1.34 1.3-2.03 1.97-1.38 1.36-2.76 2.71-4.13 4.07-0.928 0.91-0.928 0.91-1.88 1.84-2.41 2.46-4.65 5.05-6.87 7.68-3.44 3.83-7.15 7.39-10.8 11-3.13 3.1-6.15 6.22-9 9.59-7.01 8.19-15.1 14.4-26.1 15.8-7.76 0.279-16.2-1.68-22.4-6.43-8.07-8.64-11.1-16.5-10.9-28.3 1.11-12.5 11.3-21.7 19.8-30 4.82-4.7 9.45-9.44 13.8-14.5 2.59-2.94 5.37-5.66 8.17-8.39 4.12-4.07 8.08-8.19 11.8-12.6 2.68-3.03 5.59-5.82 8.46-8.65 2.7-2.74 5.21-5.6 7.7-8.52 1.51-1.71 1.51-1.71 4.01-3.96 1.7-1.61 1.7-1.61 1.56-3.69-1.5-2.92-3.72-4.77-6.06-7.06-0.957-0.943-1.91-1.89-2.87-2.83-0.489-0.484-0.979-0.968-1.48-1.47-4.47-4.44-8.79-8.91-12.9-13.7-2.16-2.43-4.46-4.7-6.77-6.99-2.87-2.83-5.64-5.67-8.25-8.75-3.38-3.96-7.05-7.59-10.8-11.2-4.3-4.26-8.53-8.51-12.4-13.2-1.17-1.36-2.39-2.68-3.63-3.98-6.76-7.1-10.1-13.5-10.4-23.4 0.359-9.56 3.55-16.6 10.2-23.5 9.46-8.12 24-10.5 35.2-4.42z" fill="#000002"/>
<path transform="translate(301 396)" d="m0 0c0.969 0.577 1.94 1.15 2.94 1.75 1.01 0.577 2.02 1.15 3.06 1.75 6.43 4.92 11.3 11.2 12.9 19.2 0.939 11.4-0.694 19.2-7.92 28-5.31 6.24-11 12.1-16.9 17.8-2.37 2.3-4.35 4.41-6.19 7.17h-2c-0.263 0.59-0.527 1.18-0.798 1.79-1.25 2.31-2.55 3.78-4.43 5.6-0.958 0.942-0.958 0.942-1.94 1.9-0.667 0.646-1.33 1.29-2.02 1.96-3.9 3.79-7.73 7.58-11.3 11.7-3.75 4.36-7.8 8.38-11.9 12.4-1.43 1.4-2.85 2.8-4.27 4.21-0.621 0.609-1.24 1.22-1.88 1.85-1.57 1.52-1.57 1.52-2.47 3.57h-2c2.12 4.12 4.85 6.96 8.14 10.1 1.75 1.74 3.34 3.54 4.93 5.42 3.45 4.01 7.18 7.72 10.9 11.4 7.36 7.28 7.36 7.28 10.4 10.9 4.06 4.81 8.61 9.13 13.1 13.6 3.84 3.82 7.53 7.68 11 11.8 1.57 1.79 3.24 3.41 4.97 5.05 7.66 7.56 12.8 15.5 12.9 26.4-0.0996 6.31-1.1 10.8-4.38 16.2-0.374 0.636-0.748 1.27-1.13 1.93-4.76 7.36-10.7 10.6-19.2 12.6-8.14 1.52-16.1 0.459-23.1-4.04-4.54-3.45-8.74-7.23-12.6-11.5v-2h-2c-1.45-1.47-1.45-1.47-3.12-3.5-2.52-2.97-5.1-5.78-7.88-8.5-3.22-3.17-6.19-6.48-9.12-9.91-2.9-3.23-6.02-6.21-9.15-9.21-1.72-1.88-1.72-1.88-1.72-3.88h-2c-1.2-1.22-1.2-1.22-2.69-3.06-3.71-4.39-7.73-8.4-11.8-12.4-4.39-4.35-8.66-8.7-12.6-13.4-2.62-2.92-5.44-5.64-8.23-8.39-19.6-19.4-19.6-19.4-20.1-33.8 0.614-14.6 9.05-22.8 19.1-32.6 1.96-1.95 3.76-3.92 5.54-6.04 4.28-5.03 9.04-9.59 13.7-14.2 0.638-0.629 1.28-1.26 1.93-1.91 0.579-0.567 1.16-1.13 1.75-1.72 1.48-1.45 1.48-1.45 2.38-3.48h2c0.259-0.586 0.518-1.17 0.784-1.77 1.31-2.39 2.71-3.94 4.66-5.83 0.684-0.673 1.37-1.35 2.07-2.04 0.715-0.694 1.43-1.39 2.17-2.1 4.79-4.67 9.4-9.4 13.8-14.5 1.88-2.15 3.87-4.16 5.92-6.14 2.68-2.55 2.68-2.55 4.62-5.62h2c0.255-0.578 0.51-1.16 0.773-1.75 2.3-4.22 5.98-7.37 9.35-10.7 0.735-0.759 1.47-1.52 2.23-2.3 9.42-9.47 23.4-15.5 36.7-9.95z" fill="#000002"/>
<path transform="translate(541 399)" d="m0 0c7.07 4.99 11.6 11.4 13.6 19.8 1.59 13.3-3.42 22.6-10.3 33.6-0.613 0.994-1.23 1.99-1.86 3.01-1.93 3.13-3.88 6.25-5.83 9.36-0.608 0.973-1.22 1.95-1.84 2.95-2.44 3.91-4.89 7.81-7.34 11.7-5.22 8.33-10.3 16.7-15.4 25.1-5.5 9.09-11.1 18.1-16.7 27.1-4.86 7.75-9.62 15.6-14.4 23.4-5.15 8.52-10.4 17-15.7 25.4-4.14 6.51-8.12 13.1-12.1 19.7-22.1 36.5-22.1 36.5-35.9 41.9-9.84 1.87-18.3 0.621-26.9-4.71-6.9-5.37-11.1-12.7-12.2-21.4-0.233-7.74 0.59-13.6 4.51-20.2 0.536-0.986 1.07-1.97 1.62-2.99 4.29-7.75 8.99-15.2 13.7-22.7 3.41-5.36 6.77-10.8 10.1-16.2 3.93-6.46 7.89-12.9 11.9-19.3 4.6-7.41 9.16-14.9 13.7-22.3 7.13-11.7 14.4-23.4 21.6-35.1 6.24-10 12.4-20.1 18.6-30.2 5.16-8.49 10.4-17 15.7-25.4 1.18-1.88 2.33-3.78 3.48-5.68 10.8-17.7 27.6-28.8 48.1-17z" fill="#000002"/>
<path transform="translate(889 725)" d="m0 0c8.29 5.35 14.1 12 16.4 21.7 1.44 8.94-0.1 17.3-5.42 24.7-4.83 5.9-10.5 10.8-18.3 12-2.25 0.154-4.47 0.2-6.72 0.18-0.793-0.00645-1.59-0.0129-2.4-0.0195-8.72-0.271-14.6-2.89-20.7-9.23-6.99-8.9-8.31-17-7.12-28.2 1.81-7.64 5.67-14.1 12.3-18.5 9-5.13 22.1-7.32 31.9-2.66z" fill="#000002"/>
<path transform="translate(568,262)" d="m0 0c2.88 2.5 2.88 2.5 5 5 0.701 0.804 1.4 1.61 2.12 2.44 5.12 7 6.8 14 5.88 22.6-2.04 8.64-5.88 15.5-13.3 20.6-8.7 5.02-18.6 6.15-28.4 3.79-8.19-3.35-14.7-9.3-18.3-17.4-3.15-9.06-2.41-17.6 1.56-26.2 4.28-7.9 9.93-12.9 18.4-15.8 9.57-2.61 18.8-0.267 27 5z" fill="#000002"/>
</svg>
